<!--?xml version="1.0" encoding="utf-8"?-->
<!-- Generator: Adobe Illustrator 27.3.1, SVG Export Plug-In . SVG Version: 6.00 Build 0)  -->
<svg version="1.1" id="Layer_1" xmlns="http://www.w3.org/2000/svg" xmlns:xlink="http://www.w3.org/1999/xlink" x="0px" y="0px" viewBox="0 0 570 550" style="" xml:space="preserve">
<style type="text/css">
	.st0{fill:none;stroke:#FFC40C;stroke-width:18;stroke-miterlimit:10;}
</style>
<g id="kids" transform="translate(-3.554 -2.011)">
	<path id="Path_1388" class="st0 OwOrlQSv_0" d="M287.29,451.88c-14.4,12.9-29.85,24.56-46.2,34.87c-9.52,7.05-19.41,13.84-29.3,20.68
		c-8.31,6.08-19.12,7.56-28.76,3.95c-5.77-2.21-10.7-6.17-14.1-11.33c-15.27-21.92-30.55-43.68-45.3-65.98
		c-17.42-25.3-11.02-59.93,14.28-77.35c18.74-12.9,43.44-13.08,62.37-0.47c0.69,0.47,1.41,0.9,2.16,1.27
		c1.62-8.81,3.05-17.43,4.7-25.85c0.57-3.97,1.41-7.9,2.51-11.75c0.89-2.87-0.19-4.14-2.51-5.57c-11.85-6.66-20-18.38-22.11-31.82
		c0-0.35-0.35-0.89-0.19-1.27c1.27-7.19-3.41-9.7-8.81-12.59c-52.67-27.22-93.36-73.02-114.17-128.53
		C51.28,113.29,45.79,84.7,45.67,55.84c-0.54-7.62,5.21-14.24,12.83-14.78c1.48-0.1,2.98,0.03,4.42,0.4
		c5.99,2.54,9.68,8.62,9.16,15.11c-0.02,21.68,3.44,43.23,10.24,63.82c17.31,54.52,55.87,99.75,106.96,125.48
		c2.87,1.43,3.78-0.19,5.03-1.81c12.49-15.73,33.69-21.61,52.49-14.57c15.67,5.83,27.09,19.5,30.03,35.95
		c0.89,3.78,2.35,4.7,5.76,4.49c5.03-0.35,10.06,0,15.46,0c0.37-1.2,0.68-2.43,0.92-3.67c2.8-18.64,16.66-33.7,35.01-38.02
		c17.91-4.95,37.03,1.58,48.17,16.45c1.81,2.16,3.24,1.81,5.4,0.73c48.22-24.32,85.29-66.21,103.55-117.04
		c8.42-22.82,12.81-46.92,12.97-71.24c0.08-3.76,1.2-7.43,3.24-10.6c3.03-4.66,8.84-6.67,14.1-4.86c5.97,2.04,9.86,7.8,9.52,14.1
		c-0.48,12.47-1.68,24.89-3.6,37.22c-7.07,44.65-26.71,86.36-56.63,120.26c-20.51,23.78-45.57,43.22-73.71,57.17
		c-2.84,1.1-4.75,3.79-4.86,6.84c-1.36,15.11-9.84,28.66-22.84,36.49c-2.32,1.06-3.48,3.68-2.7,6.11c2.16,11.51,3.95,23,5.76,34.33
		c0.19,0.89,0.35,1.62,0.73,3.05c1.83-0.72,3.58-1.62,5.22-2.7c22.22-14.26,51.48-10.39,69.22,9.16
		c17.05,18.49,19.91,45.99,7.05,67.6c-5.4,9.4-11.75,17.98-17.98,26.97c-9,12.95-17.79,25.85-26.79,38.84
		c-5.61,8.76-14.84,14.56-25.17,15.81c-7.35,0.85-14.75-1.15-20.68-5.57c-15.27-10.79-30.38-21.57-45.66-32.54
		c-0.73-0.54-1.27-1.08-1.97-1.62C306.51,466.43,297,459.24,287.29,451.88z M288.02,379.04c14.48-16.94,37.62-23.71,58.95-17.25
		c-2.16-12.76-4.32-24.81-6.11-36.84c-0.06-2.99-2.42-5.42-5.4-5.57c-12.63-2.32-23.68-9.89-30.38-20.84c-0.97-1.22-2.4-2-3.95-2.16
		c-8.62-0.19-17.43-0.19-26.06,0.19c-1.61-0.03-3.14,0.7-4.14,1.97c-7.28,11.45-19.01,19.33-32.36,21.76
		c-1.45,0.46-2.59,1.6-3.05,3.05c-0.89,3.6-1.43,7.19-2.16,10.79c-1.43,9-2.87,18.16-4.49,27.87c21.34-6.52,44.52,0.16,59.12,17.04
		H288.02z M202.63,433.69c-0.89-1.43-1.81-2.51-2.51-3.6c-7.05-10.06-13.84-20.49-21.15-30.38c-4.53-5.74-12.69-7.06-18.8-3.05
		c-5.97,4.12-7.57,12.26-3.6,18.33c8.08,12.22,16.19,24.63,25.17,36.3c7.92,10.53,22.54,13.33,33.79,6.46
		c12.95-8.08,25.17-17.25,37.6-26.25c4.51-3.86,5.97-10.21,3.6-15.65c-2.15-5.57-7.97-8.82-13.84-7.73
		c-4.52,1.3-8.78,3.36-12.59,6.11c-9.52,6.18-18.33,12.83-27.68,19.48L202.63,433.69z M373.06,433.88
		c-8.46-6.3-16.45-12.05-24.44-17.79c-3.21-2.48-6.57-4.77-10.06-6.84c-6.23-3.24-13.9-1.39-17.98,4.32
		c-3.97,5.67-2.87,13.44,2.51,17.79c12.05,9,24.27,18.16,37.22,26.25c11.57,6.84,26.43,3.9,34.52-6.84
		c8.46-11.33,16.45-23.19,24.27-35.06c4.46-6.04,3.18-14.56-2.86-19.03c-0.18-0.13-0.36-0.26-0.55-0.38
		c-6.35-4.02-14.73-2.35-19.06,3.78c-3.78,4.86-7.05,10.06-10.6,15.11c-4.39,6.3-8.53,12.22-13.02,18.7L373.06,433.88z
		 M230.5,293.65c11.12,0.3,20.38-8.48,20.68-19.6c0.3-11.12-8.48-20.38-19.6-20.68c-11.31-0.36-20.77,8.51-21.14,19.82
		c-0.01,0.22-0.01,0.45-0.01,0.67c0.17,10.96,9.08,19.77,20.04,19.81L230.5,293.65z M345.19,293.65
		c10.92,0.02,19.86-8.68,20.14-19.6c0.13-11.26-8.87-20.51-20.14-20.68c-11.12-0.01-20.14,9.01-20.15,20.13
		c-0.01,11.12,9.01,20.14,20.13,20.15C345.17,293.65,345.18,293.65,345.19,293.65z"></path>
</g>
<style data-made-with="vivus-instant">.OwOrlQSv_0{stroke-dasharray:3479 3481;stroke-dashoffset:3480;animation:OwOrlQSv_draw_0 11200ms linear 0ms infinite,OwOrlQSv_fade 11200ms linear 0ms infinite;}@keyframes OwOrlQSv_draw{100%{stroke-dashoffset:0;}}@keyframes OwOrlQSv_fade{0%{stroke-opacity:1;}99.10714285714286%{stroke-opacity:1;}100%{stroke-opacity:0;}}@keyframes OwOrlQSv_draw_0{0.8928571428571428%{stroke-dashoffset: 3480}48.511904761904766%{ stroke-dashoffset: 0;}100%{ stroke-dashoffset: 0;}}</style></svg>
